<svg width="190" height="38" viewBox="0 0 190 38" fill="none" xmlns="http://www.w3.org/2000/svg">
<circle cx="17.5" cy="17.5" r="17.5" fill="url(#paint0_linear_21_2)"/>
<path d="M33.9868 10.2418C33.9761 10.19 33.9508 10.1423 33.914 10.1043C33.8771 10.0663 33.8302 10.0396 33.7787 10.0273C30.3469 9.18827 22.4174 12.1783 18.1213 16.4726C17.3551 17.2327 16.6565 18.0581 16.0336 18.9394C14.7088 18.8223 13.384 18.9201 12.2549 19.4123C9.06918 20.8144 8.14165 24.473 7.88325 26.0469C7.86859 26.133 7.87412 26.2214 7.8994 26.305C7.92468 26.3887 7.96902 26.4653 8.02893 26.5289C8.08884 26.5925 8.1627 26.6413 8.24468 26.6716C8.32667 26.7018 8.41455 26.7126 8.50141 26.7031L13.6172 26.1389C13.6209 26.5246 13.6442 26.9098 13.687 27.2932C13.7127 27.5594 13.8309 27.8081 14.0209 27.9963L16.002 29.9726C16.1903 30.1625 16.439 30.2806 16.7051 30.3066C17.0863 30.3493 17.4694 30.3725 17.853 30.3764L17.2916 35.4857C17.2823 35.5726 17.2932 35.6604 17.3234 35.7423C17.3537 35.8242 17.4025 35.898 17.4661 35.9579C17.5297 36.0178 17.6063 36.0622 17.6899 36.0875C17.7735 36.1128 17.8618 36.1184 17.9479 36.1039C19.5188 35.8519 23.1838 34.9244 24.5778 31.7387C25.07 30.6096 25.1707 29.2912 25.0571 27.9728C25.9406 27.3499 26.7681 26.6512 27.5303 25.8846C31.8399 21.5967 34.8129 13.8441 33.9868 10.2418ZM23.2307 20.7693C22.8372 20.3761 22.5691 19.8749 22.4605 19.3293C22.3518 18.7837 22.4074 18.2181 22.6202 17.7041C22.833 17.19 23.1935 16.7507 23.6561 16.4416C24.1186 16.1324 24.6625 15.9674 25.2188 15.9674C25.7751 15.9674 26.319 16.1324 26.7815 16.4416C27.2441 16.7507 27.6046 17.19 27.8174 17.7041C28.0302 18.2181 28.0858 18.7837 27.9771 19.3293C27.8684 19.8749 27.6004 20.3761 27.2069 20.7693C26.9459 21.0306 26.636 21.238 26.2949 21.3794C25.9538 21.5208 25.5881 21.5937 25.2188 21.5937C24.8495 21.5937 24.4838 21.5208 24.1427 21.3794C23.8016 21.238 23.4917 21.0306 23.2307 20.7693Z" fill="white"/>
<path d="M15.8672 31.4041C15.5461 31.7258 15.0311 31.8512 14.4111 31.9584C13.0184 32.1957 11.7885 30.9922 12.0387 29.5842C12.1342 29.0504 12.4166 28.3022 12.5924 28.1264C12.6308 28.0887 12.6564 28.0399 12.6655 27.9868C12.6746 27.9338 12.6667 27.8792 12.643 27.8309C12.6194 27.7826 12.5811 27.7429 12.5336 27.7176C12.4861 27.6923 12.4318 27.6826 12.3785 27.6898C11.5997 27.7851 10.8751 28.1383 10.3201 28.693C8.94258 30.0717 8.8125 35.1875 8.8125 35.1875C8.8125 35.1875 13.9313 35.0574 15.3088 33.6787C15.8652 33.1242 16.2188 32.3985 16.3125 31.6186C16.3342 31.3736 16.0359 31.2277 15.8672 31.4041V31.4041Z" fill="white"/>
<path d="M44 21.45H52V24.825H44V21.45ZM40.275 28L46.325 10.975H50.35L56.1 28H52.4L47.75 13.475H48.95L43.95 28H40.275ZM61.7906 28.375C60.8073 28.375 59.8823 28.1833 59.0156 27.8C58.1656 27.4167 57.3906 26.7583 56.6906 25.825L58.7656 23.825C59.3323 24.4083 59.874 24.825 60.3906 25.075C60.9073 25.325 61.474 25.45 62.0906 25.45C62.4573 25.45 62.749 25.375 62.9656 25.225C63.199 25.0583 63.3156 24.8583 63.3156 24.625C63.3156 24.425 63.249 24.2583 63.1156 24.125C62.9823 23.9917 62.7323 23.8583 62.3656 23.725C61.999 23.5917 61.4656 23.4333 60.7656 23.25C59.4823 22.9333 58.524 22.475 57.8906 21.875C57.274 21.2583 56.9656 20.4417 56.9656 19.425C56.9656 18.6917 57.1573 18.025 57.5406 17.425C57.924 16.8083 58.474 16.3167 59.1906 15.95C59.9073 15.5833 60.7573 15.4 61.7406 15.4C62.9073 15.4 63.899 15.625 64.7156 16.075C65.5323 16.5083 66.2073 17.0417 66.7406 17.675L64.4906 19.6C64.124 19.2667 63.6823 18.9833 63.1656 18.75C62.649 18.5167 62.0656 18.4 61.4156 18.4C61.0656 18.4 60.7656 18.4667 60.5156 18.6C60.2656 18.7333 60.1406 18.9333 60.1406 19.2C60.1406 19.45 60.2906 19.6583 60.5906 19.825C60.8906 19.9917 61.4906 20.1833 62.3906 20.4C63.9073 20.7667 64.9906 21.2583 65.6406 21.875C66.3073 22.4917 66.6406 23.3167 66.6406 24.35C66.6406 25.15 66.4323 25.8583 66.0156 26.475C65.599 27.075 65.024 27.5417 64.2906 27.875C63.5573 28.2083 62.724 28.375 61.7906 28.375ZM74.0699 28.2C72.7199 28.2 71.6533 27.8667 70.8699 27.2C70.1033 26.5333 69.7199 25.4417 69.7199 23.925V15.925L69.6699 15.775L70.4199 12.825H73.3699V23.125C73.3699 23.6917 73.5033 24.1 73.7699 24.35C74.0366 24.5833 74.3866 24.7 74.8199 24.7C75.0699 24.7 75.3033 24.6833 75.5199 24.65C75.7533 24.6 75.9449 24.55 76.0949 24.5V27.925C75.8116 28.0083 75.5033 28.075 75.1699 28.125C74.8533 28.175 74.4866 28.2 74.0699 28.2ZM67.8199 19.125V15.775H76.0949V19.125H67.8199ZM81.2314 15.775L82.1814 19.15V28H78.5314V15.775H81.2314ZM81.3814 21.175L80.7564 20.9V18.075L80.9814 17.775C81.1814 17.4917 81.4648 17.1667 81.8314 16.8C82.2148 16.4333 82.6564 16.125 83.1564 15.875C83.6731 15.6083 84.1981 15.475 84.7314 15.475C84.9981 15.475 85.2398 15.4917 85.4564 15.525C85.6731 15.5583 85.8481 15.6167 85.9814 15.7V19.025H85.1564C84.0898 19.025 83.2481 19.2 82.6314 19.55C82.0314 19.8833 81.6148 20.425 81.3814 21.175ZM92.8984 28.3C91.6318 28.3 90.5151 28.0333 89.5484 27.5C88.5818 26.95 87.8318 26.1917 87.2984 25.225C86.7651 24.2583 86.4984 23.15 86.4984 21.9C86.4984 20.6333 86.7651 19.5167 87.2984 18.55C87.8318 17.5833 88.5818 16.8333 89.5484 16.3C90.5151 15.75 91.6318 15.475 92.8984 15.475C94.1818 15.475 95.3068 15.75 96.2734 16.3C97.2401 16.8333 97.9901 17.5833 98.5234 18.55C99.0734 19.5167 99.3484 20.6333 99.3484 21.9C99.3484 23.15 99.0734 24.2583 98.5234 25.225C97.9901 26.1917 97.2401 26.95 96.2734 27.5C95.3068 28.0333 94.1818 28.3 92.8984 28.3ZM92.8984 24.75C93.7151 24.75 94.3734 24.4917 94.8734 23.975C95.3901 23.4417 95.6484 22.75 95.6484 21.9C95.6484 21.0333 95.3901 20.3333 94.8734 19.8C94.3734 19.2667 93.7151 19 92.8984 19C92.1151 19 91.4651 19.2667 90.9484 19.8C90.4484 20.3167 90.1984 21.0083 90.1984 21.875C90.1984 22.7417 90.4484 23.4417 90.9484 23.975C91.4651 24.4917 92.1151 24.75 92.8984 24.75ZM102.062 28V10.975H107.662C109.295 10.975 110.753 11.3167 112.037 12C113.32 12.6833 114.328 13.6667 115.062 14.95C115.795 16.2167 116.162 17.7417 116.162 19.525C116.162 21.3417 115.787 22.8833 115.037 24.15C114.303 25.4 113.295 26.3583 112.012 27.025C110.728 27.675 109.27 28 107.637 28H102.062ZM104.562 26.2L103.812 25.65H107.512C108.628 25.65 109.637 25.4333 110.537 25C111.453 24.55 112.187 23.875 112.737 22.975C113.287 22.075 113.562 20.925 113.562 19.525C113.562 18.175 113.287 17.0417 112.737 16.125C112.203 15.1917 111.478 14.4917 110.562 14.025C109.662 13.5583 108.653 13.325 107.537 13.325H103.637L104.562 12.425V26.2ZM123.729 28.25C122.546 28.25 121.504 27.9917 120.604 27.475C119.704 26.9417 119.004 26.2 118.504 25.25C118.004 24.3 117.754 23.1917 117.754 21.925C117.754 20.6417 118.004 19.525 118.504 18.575C119.004 17.625 119.704 16.8833 120.604 16.35C121.504 15.8167 122.546 15.55 123.729 15.55C124.929 15.55 125.979 15.8167 126.879 16.35C127.779 16.8833 128.479 17.625 128.979 18.575C129.479 19.525 129.729 20.6417 129.729 21.925C129.729 22.0417 129.721 22.1667 129.704 22.3C129.704 22.4167 129.696 22.525 129.679 22.625H120.129V20.475H127.879L127.179 21.925C127.179 20.6583 126.896 19.6167 126.329 18.8C125.763 17.9833 124.896 17.575 123.729 17.575C122.696 17.575 121.871 17.9083 121.254 18.575C120.638 19.225 120.329 20.0833 120.329 21.15V22.45C120.329 23.5667 120.629 24.4583 121.229 25.125C121.829 25.775 122.663 26.1 123.729 26.1C124.713 26.1 125.471 25.8917 126.004 25.475C126.538 25.0583 127.004 24.5417 127.404 23.925L129.279 25.1C128.713 26.15 127.979 26.9417 127.079 27.475C126.196 27.9917 125.079 28.25 123.729 28.25ZM134.181 28.125C133.748 28.125 133.365 28.025 133.031 27.825C132.698 27.6083 132.431 27.3 132.231 26.9C132.048 26.5 131.956 26.0083 131.956 25.425V10.975H134.406V24.55C134.406 25.0667 134.531 25.4167 134.781 25.6C135.048 25.7833 135.348 25.875 135.681 25.875V27.875C135.465 27.9583 135.231 28.0167 134.981 28.05C134.731 28.1 134.465 28.125 134.181 28.125ZM140.683 28H138.183V15.8H140.683V28ZM137.808 12.05C137.808 11.5667 137.95 11.175 138.233 10.875C138.533 10.5583 138.933 10.4 139.433 10.4C139.917 10.4 140.308 10.5583 140.608 10.875C140.908 11.175 141.058 11.5667 141.058 12.05C141.058 12.5167 140.908 12.9083 140.608 13.225C140.308 13.525 139.917 13.675 139.433 13.675C138.933 13.675 138.533 13.525 138.233 13.225C137.95 12.9083 137.808 12.5167 137.808 12.05ZM154.594 15.8L149.994 28H147.619L142.769 15.8H145.544L148.944 25.275H148.619L151.869 15.8H154.594ZM161.473 28.25C160.29 28.25 159.248 27.9917 158.348 27.475C157.448 26.9417 156.748 26.2 156.248 25.25C155.748 24.3 155.498 23.1917 155.498 21.925C155.498 20.6417 155.748 19.525 156.248 18.575C156.748 17.625 157.448 16.8833 158.348 16.35C159.248 15.8167 160.29 15.55 161.473 15.55C162.673 15.55 163.723 15.8167 164.623 16.35C165.523 16.8833 166.223 17.625 166.723 18.575C167.223 19.525 167.473 20.6417 167.473 21.925C167.473 22.0417 167.465 22.1667 167.448 22.3C167.448 22.4167 167.44 22.525 167.423 22.625H157.873V20.475H165.623L164.923 21.925C164.923 20.6583 164.64 19.6167 164.073 18.8C163.507 17.9833 162.64 17.575 161.473 17.575C160.44 17.575 159.615 17.9083 158.998 18.575C158.382 19.225 158.073 20.0833 158.073 21.15V22.45C158.073 23.5667 158.373 24.4583 158.973 25.125C159.573 25.775 160.407 26.1 161.473 26.1C162.457 26.1 163.215 25.8917 163.748 25.475C164.282 25.0583 164.748 24.5417 165.148 23.925L167.023 25.1C166.457 26.15 165.723 26.9417 164.823 27.475C163.94 27.9917 162.823 28.25 161.473 28.25ZM171.723 15.8L172.323 19.1V28H169.823V15.8H171.723ZM171.948 20.125L171.348 19.85V18.025L171.573 17.75C171.739 17.45 171.998 17.1333 172.348 16.8C172.714 16.45 173.139 16.1583 173.623 15.925C174.106 15.675 174.598 15.55 175.098 15.55C175.348 15.55 175.581 15.5667 175.798 15.6C176.031 15.6333 176.206 15.6917 176.323 15.775V18.025H175.548C174.414 18.025 173.589 18.2 173.073 18.55C172.556 18.8833 172.181 19.4083 171.948 20.125ZM182.041 26.45L177.216 15.8H179.841L184.116 25.225L182.041 26.45ZM178.841 32.75L186.541 15.8H189.166L181.466 32.75H178.841Z" fill="#283841"/>
<defs>
<linearGradient id="paint0_linear_21_2" x1="1.35441e-07" y1="18" x2="35" y2="18" gradientUnits="userSpaceOnUse">
<stop stop-color="#2F27CE"/>
<stop offset="1" stop-color="#9F93E7"/>
</linearGradient>
</defs>
</svg>
